#N canvas 827 239 527 327 12;
#N canvas 0 0 450 250 (subpatch) 0;
#X obj 414 153 r \$0-octave, f 13;
#X obj 41 38 cnv 15 323 252 empty empty empty 20 12 0 14 #d18923 #ffffff 0;
#X obj 50 48 cnv 15 305 230 empty empty empty 20 12 0 14 #aab43a #373737 0;
#X obj 130 64 note 135 24 URW\ Gothic empty 0 255 255 255 0 47 255 101 0 1 Bing Bong;
#X obj 58 94 else/knob 64 100 8000 4 100 \$0-speed \$0-set-speed #ffffff #c7c7c7 #d18923 0 0 0 0 0 320 0 0 100 empty empty 0 0 0 0 0 0 0 0;
#X obj 67 198 keyboard 13 65 3 2 1 0 \$0-pitch \$0-set-pitch;
#X obj 327 75 tgl 21 1 \$0-tgl \$0-set-tgl empty 17 7 0 10 #191919 #ffffff #ffffff 1 1;
#X obj 286 75 bng 21 250 50 0 \$0-clear \$0-set-clear empty 17 7 0 10 #191919 #ffffff #ffffff;
#X obj 319 64 note 38 8 URW\ Gothic empty 0 255 255 255 0 47 255 101 0 0 on/off;
#X obj 279 64 note 37 8 URW\ Gothic empty 0 255 255 255 0 47 255 101 0 0 clear;
#X obj 58 85 note 63 12 URW\ Gothic empty 0 255 255 255 0 47 255 101 0 1 speed;
#X obj 153 110 note 75 12 URW\ Gothic empty 0 255 255 255 0 47 255 101 0 1 voice;
#X obj 159 154 note 63 12 URW\ Gothic empty 0 255 255 255 0 47 255 101 0 1 octave;
#X obj 127 125 hradio 20 1 1 6 \$0-voice \$0-set-voice empty 0 -8 0 10 #191919 #ffffff #ffffff 0;
#X obj 140 169 hradio 20 1 0 5 \$0-octave \$0-set-octave empty 0 -8 0 10 #191919 #ffffff #ffffff 0;
#X obj 259 125 note 76 16 URW\ Gothic empty 0 255 255 255 0 165 0 2 1 1 bing;
#X obj 249 169 note 97 16 URW\ Gothic empty 0 255 255 255 0 165 0 2 1 1 + 2;
#X obj 356 37 cnv 15 8 252 empty empty empty 20 12 0 14 #d18923 #ffffff 0;
#X obj 41 37 cnv 15 8 253 empty empty empty 20 12 0 14 #d18923 #ffffff 0;
#X obj 414 64 r \$0-voice-name, f 16;
#X msg 414 181 set + \$1, f 11;
#X obj 414 97 symbol;
#X msg 414 125 set \$1, f 11;
#X obj 58 169 nbx 7 20 100 8000 0 0 \$0-speed \$0-speed empty 0 -8 0 10 #191919 #ffffff #ffffff 0 256;
#X obj 99 56 tgl 21 0 \$0-open-key-text empty empty 17 7 0 10 #191919 #ffffff #ffffff 0 1;
#X obj 67 56 note 37 8 URW\ Gothic empty 0 255 255 255 0 47 255 101 0 0 view;
#X connect 0 0 20 0;
#X connect 19 0 21 0;
#X connect 20 0 16 0 48.................E....D8+++eA....Q++++S8+++eX++++T++++G1+++u3++++;
#X connect 21 0 22 0;
#X connect 22 0 15 0;
#X coords 0 1 100 -1 325 253 1 40 37;
#X restore 136 374 graph;
#X obj 753 78 unpack f f;
#X obj 798 128 nbx 3 28 -1e+37 1e+37 0 0 empty empty velocity 0 -8 0 10 #191919 #ffffff #ffffff 0 256;
#X obj 738 128 nbx 3 28 -1e+37 1e+37 0 0 empty empty note 0 -8 0 10 #191919 #ffffff #ffffff 0 256;
#X obj 678 168 s \$0-key-note, f 14;
#X obj 852 162 s \$0-key-vel, f 13;
#X obj 1456 257 tgl 25 1 empty empty empty 17 7 0 10 #191919 #ffffff #ffffff 1 1;
#X obj 1456 475 counter 0 0;
#X obj 1456 525 nbx 4 18 -1e+37 1e+37 0 0 empty empty empty 0 -8 0 10 #191919 #ffffff #ffffff 0 256;
#X obj 1521 429 - 1, f 8;
#X text 1508 228 TOGGLE PLAYBACK;
#X obj 1366 976 palette/bass.m~;
#X obj 1375 667 pack f f;
#X obj 1198 974 palette/guitar.m~;
#X obj 1073 974 palette/epiano.m~;
#X obj 1195 731 hradio 20 1 0 6 empty empty VOICE 0 -8 0 10 #191919 #ffffff #ffffff 0;
#X obj 932 974 palette/drums.m~;
#X obj 487 990 mtof;
#X obj 431 1091 osc~;
#X obj 475 1125 *~;
#X obj 487 1091 vline~;
#X obj 1195 800 nbx 4 18 -1e+37 1e+37 0 0 empty empty empty 0 -8 0 10 #191919 #ffffff #ffffff 0 256;
#X obj 1323 559 hradio 20 1 0 5 empty empty OCTAVE 0 -8 0 10 #191919 #ffffff #ffffff 0;
#X obj 1281 613 expr $f1 + $f2*12;
#X obj 1195 775 + 1, f 7;
#X obj 753 27 r \$0-pitch;
#X obj 1323 515 r \$0-octave, f 13;
#X obj 1195 682 r \$0-voice, f 13;
#X obj 1456 213 r \$0-tgl, f 11;
#X obj 1495 263 r \$0-speed, f 14;
#X msg 932 1188 drums;
#X msg 1073 1188 e-piano;
#X msg 1198 1188 guitar;
#X msg 1366 1188 bass;
#X obj 1088 1260 s \$0-voice-name;
#X obj 738 263 t l l, f 11;
#X obj 714 411 gate 2;
#X obj 843 365 + 1;
#X obj 843 334 == 0;
#X msg 1084 247 clear, f 6;
#X obj 791 303 unpack 0 0;
#X obj 855 428 unpack 0 0;
#X obj 857 532 nbx 4 16 -1e+37 1e+37 0 0 empty empty empty 0 -8 0 10 #191919 #ffffff #ffffff 0 256;
#X obj 855 480 text search \$0-key-text;
#X obj 855 564 text delete \$0-key-text, f 16;
#X obj 712 546 text insert \$0-key-text;
#X obj 1521 376 text size \$0-key-text;
#X obj 1323 360 text get \$0-key-text;
#X obj 738 228 pack 0 0, f 17;
#X obj 1323 452 unpack f f;
#X obj 900 185 r \$0-clear;
#X obj 1084 410 s \$0-set-pitch;
#X text 1103 322 hacky way to remove toggled notes;
#X obj 1084 469 s \$0-set-pitch;
#X obj 1084 533 s \$0-set-pitch;
#X obj 1084 659 s \$0-set-pitch;
#X obj 1084 594 s \$0-set-pitch;
#X msg 1084 370 off 36 37 38 39 40 41 42 43;
#X msg 1084 437 off 44 45 46 47 48 49 50 51;
#X msg 1084 499 off 52 53 54 55 56 57 58 59;
#X msg 1084 564 off 60 61 62 63 64 65 66 67;
#X msg 1084 626 off 68 69 70 71 72;
#X obj 992 380 bang;
#X obj 487 929 unpack f f;
#X obj 568 971 / 127, f 8;
#X obj 568 1006 f;
#X obj 568 936 f;
#X msg 487 1046 \$1 10 \, 0 100 10;
#X obj 1456 321 metro 100;
#X obj 1450 1188 outlet~;
#X obj 1538 1188 outlet~;
#X text 1450 1218 left outlet;
#X text 1538 1218 right outlet;
#X obj 546 694 inlet;
#X obj 692 694 inlet;
#X obj 692 733 s \$0-set-tgl, f 26;
#X obj 546 733 s \$0-set-clear, f 20;
#X obj 1226 859 gate 6;
#X msg 475 1188 bing, f 11;
#X msg 701 1188 bong, f 11;
#X obj 711 990 mtof;
#X obj 655 1091 osc~;
#X obj 699 1125 *~;
#X obj 711 1091 vline~;
#X obj 711 929 unpack f f;
#X obj 792 971 / 127, f 8;
#X obj 792 1006 f, f 5;
#X obj 792 936 f;
#X obj 808 1031 pack f f;
#X obj 873 909 r \$0-speed, f 14;
#X obj 873 936 expr $f1 - 10;
#X msg 711 1046 \$1 10 \, 0 \$2 10;
#X obj 852 1006 f, f 5;
#X obj 873 816 loadbang;
#X msg 40 214 line 0 \, bang, f 11;
#X obj 39 65 bng 25 250 50 0 empty empty empty 17 7 0 10 #e4e4e4 #4d4d4d #373737;
#X obj 670 19 r pitch;
#X obj 650 93 print;
#X text 556 647 These outlets are nice to synchronize multiple bing bongs!;
#X obj 1084 280 text define -k \$0-key-text;
#A set;
#X f 22;
#X obj 22 343 print, f 9;
#X obj 800 1291 output~;
#X obj 39 113 t b b;
#X obj 144 199 s \$0-clear;
#X obj 900 240 t b b;
#X obj 121 343 s \$0-set-pitch, f 15;
#X obj 39 159 del 100, f 8;
#X obj 12 13 text define -k \$0-pattern;
#A set 66 100 \; 54 100 \; 47 100 \; 65 100 \;;
#X obj 40 274 text sequence \$0-pattern, f 27;
#X obj 170 13 text define -k test;
#A set 65 100 \; 47 100 \; 54 100 \; 66 100 \;;
#X obj 294 13 text define -k test1;
#A set 44 100 \; 45 100 \; 46 100 \;;
#X obj 200 67 bng 25 250 50 0 empty empty empty 17 7 0 10 #191919 #ffffff #ffffff;
#X obj 241 204 text sequence test1;
#X msg 200 168 line 0 \, bang;
#X obj 241 263 text insert \$0-pattern;
#X obj 200 113 t b b;
#X obj 278 161 text delete \$0-pattern;
#X msg 327 122 -1;
#X obj 409 67 bng 25 250 50 0 empty empty empty 17 7 0 10 #191919 #ffffff #ffffff;
#X msg 409 168 line 0 \, bang;
#X obj 450 263 text insert \$0-pattern;
#X obj 409 113 t b b;
#X obj 517 148 text delete \$0-pattern;
#X msg 536 122 -1;
#X obj 450 204 text sequence test;
#X obj 873 875 nbx 4 18 -1e+37 1e+37 0 1 empty 100 empty 0 -8 0 10 #191919 #ffffff #ffffff 100 256;
#X obj 609 695 inlet;
#X obj 248 782 s \$0-clear;
#X obj 143 860 s \$0-set-pitch, f 15;
#X obj 248 742 bng 25 250 50 0 empty empty empty 17 7 0 10 #191919 #ffffff #ffffff;
#X msg 1150 246 click;
#X msg 1205 247 close;
#X obj 1151 198 sel 1 0;
#X obj 1151 162 tgl 25 0 empty \$0-open-key-text empty 17 7 0 10 #191919 #ffffff #ffffff 0 1;
#X obj 992 410 del 40, f 9;
#X obj 992 443 del 40, f 9;
#X obj 992 473 del 40, f 9;
#X obj 992 503 del 40, f 9;
#X obj 527 785 pipe2 200;
#X text 106 52 This part can be ignored \, was just testing some stuff out;
#X connect 1 0 3 0;
#X connect 1 1 2 0;
#X connect 2 0 5 0;
#X connect 2 0 48 1;
#X connect 3 0 4 0;
#X connect 3 0 48 0;
#X connect 6 0 68 0 32.................T..........E.........bB....;
#X connect 7 0 8 0 32.................H..........B..........A....;
#X connect 8 0 47 0 64.......................9+++O.....f++++O8++++y++++S+++++7+++uR++++78+++qz+++Oe++++J8+++C;
#X connect 9 0 7 4 32.................N.........fC.........rA....;
#X connect 11 0 69 0 32.................YA...PE...PV....TA...HK....;
#X connect 11 0 70 0 32.................CA...vJ...vP....rB...HK....;
#X connect 12 0 77 1 32.................6....b4++++N....W9+++6I....;
#X connect 13 0 70 0 32.................DA...PU....Q....TE...PK....;
#X connect 13 0 69 0 32.................7....vO....O....7C...PK....;
#X connect 14 0 70 0 32.................8....Dc...PO....QG...XK....;
#X connect 14 0 69 0 32.................8....jW...PO....4E...XK....;
#X connect 15 0 24 0;
#X connect 16 0 70 0 32.................6....3k...vN....dI...DK....;
#X connect 16 0 69 0 32.................6....Xf...vN....FH...DK....;
#X connect 17 0 18 0 32.................o....j7+++eJ....I++++KE....;
#X connect 18 0 19 0 32.................P....jA....D....Y....7.....;
#X connect 19 0 70 0 32.................c....bv...PG....GL...nC....;
#X connect 19 0 69 0 32.................c....7p...PG....uJ...nC....;
#X connect 19 0 101 0;
#X connect 20 0 19 1;
#X connect 21 0 77 0;
#X connect 22 0 23 1;
#X connect 23 0 12 0 32.................G....PG...vA....zA...PA....;
#X connect 24 0 21 0;
#X connect 25 0 1 0;
#X connect 26 0 22 0;
#X connect 27 0 15 0;
#X connect 28 0 6 0 32.................M.........PC.........jA....;
#X connect 29 0 68 1 32.................f..........H.........bB....;
#X connect 30 0 34 0;
#X connect 31 0 34 0;
#X connect 32 0 34 0;
#X connect 33 0 34 0;
#X connect 35 0 36 1;
#X connect 35 1 40 0;
#X connect 36 0 45 0;
#X connect 36 1 41 0;
#X connect 37 0 36 0 32.................J.....3+++uB.....9+++uA....;
#X connect 38 0 37 0;
#X connect 39 0 99 0;
#X connect 40 1 38 0;
#X connect 41 0 43 0;
#X connect 42 0 44 0;
#X connect 43 0 42 0;
#X connect 46 0 9 0 32.................J.........fB.........LA....;
#X connect 47 0 49 0;
#X connect 48 0 35 0;
#X connect 49 0 23 0;
#X connect 49 1 12 1;
#X connect 50 0 104 0;
#X connect 57 0 51 0;
#X connect 58 0 53 0;
#X connect 59 0 54 0;
#X connect 60 0 56 0;
#X connect 61 0 55 0;
#X connect 62 0 57 0;
#X connect 62 0 134 0;
#X connect 63 0 17 0;
#X connect 63 1 66 0 48......................XA.........V.....9+++OK....f++++yB...f4++++;
#X connect 64 0 65 0;
#X connect 65 0 67 0 32.................G.....6++++A....v9+++WA....;
#X connect 66 0 64 0;
#X connect 67 0 20 0 32.................F.........fA.........r.....;
#X connect 67 0 18 1 32.................F....P8+++uA....T++++u.....;
#X connect 68 0 7 0 32.................7..........O.........fG....;
#X connect 68 0 46 0 32.................K....DD...vB....AA...TA....;
#X connect 73 0 76 0;
#X connect 74 0 75 0;
#X connect 77 0 63 0;
#X connect 77 0 78 0;
#X connect 77 1 79 0;
#X connect 77 1 84 0;
#X connect 77 2 16 0;
#X connect 77 2 30 0;
#X connect 77 3 14 0;
#X connect 77 3 31 0;
#X connect 77 4 32 0;
#X connect 77 4 13 0;
#X connect 77 5 33 0;
#X connect 77 5 11 0;
#X connect 78 0 34 0;
#X connect 79 0 34 0;
#X connect 80 0 81 0 32.................o....j7+++eJ....I++++KE....;
#X connect 81 0 82 0 32.................P....jA....D....Y....7.....;
#X connect 82 0 69 0;
#X connect 82 0 70 0;
#X connect 82 0 101 0;
#X connect 83 0 82 1;
#X connect 84 0 80 0;
#X connect 84 1 87 0 48......................XA.........V.....9+++OK....f++++yB...f4++++;
#X connect 85 0 86 0;
#X connect 86 0 88 0;
#X connect 87 0 85 0;
#X connect 88 0 91 0;
#X connect 89 0 90 0;
#X connect 90 0 92 0;
#X connect 91 0 83 0 32.................F.........fA.........r.....;
#X connect 91 0 81 1 32.................F....P8+++uA....T++++u.....;
#X connect 92 0 88 1;
#X connect 93 0 125 0;
#X connect 94 0 108 0;
#X connect 95 0 102 0;
#X connect 96 0 1 0;
#X connect 96 0 97 0;
#X connect 102 0 106 0;
#X connect 102 1 103 0;
#X connect 104 0 62 0;
#X connect 104 1 39 0;
#X connect 106 0 94 0;
#X connect 108 0 105 0;
#X connect 108 0 100 0;
#X connect 111 0 115 0;
#X connect 112 0 114 0;
#X connect 113 0 112 0;
#X connect 115 0 113 0;
#X connect 115 1 117 0;
#X connect 117 0 116 0;
#X connect 118 0 121 0;
#X connect 119 0 124 0;
#X connect 121 0 119 0;
#X connect 121 1 123 0;
#X connect 123 0 122 0;
#X connect 124 0 120 0;
#X connect 125 0 90 0;
#X connect 126 0 129 0;
#X connect 126 0 138 0;
#X connect 129 0 127 0;
#X connect 130 0 99 0;
#X connect 131 0 99 0;
#X connect 132 0 130 0;
#X connect 132 1 131 0 32.................O....fB...vC....n....7.....;
#X connect 133 0 132 0;
#X connect 134 0 58 0;
#X connect 134 0 135 0;
#X connect 135 0 59 0;
#X connect 135 0 136 0;
#X connect 136 0 60 0;
#X connect 136 0 137 0;
#X connect 137 0 61 0;
#X connect 138 0 128 0;
#X coords 0 0 1 1 325 253 1 136 374;
